<?xml version="1.0" encoding="utf-8"?>
<!-- Generator: Adobe Illustrator 19.0.1, SVG Export Plug-In . SVG Version: 6.00 Build 0)  -->
<svg version="1.1" id="Layer_1" xmlns="http://www.w3.org/2000/svg" xmlns:xlink="http://www.w3.org/1999/xlink" x="0px" y="0px"
	 viewBox="0 0 73 56" style="enable-background:new 0 0 73 56;" xml:space="preserve">
<style type="text/css">
	.st0{fill:#FF4134;}
	.st1{fill:#FFFFFF;}
	.st2{fill:none;}
</style>
<g>
	<g>
		<path class="st0" d="M36.6,8.5c-3.7,0-10.7,0.1-13.7,0.2c-2.9,0.1-5.5,0.4-7.7,0.6c-3,0.4-5.3,0.7-7.1,1.2
			c-2.4,0.7-4.1,1.7-5.3,3.1c-0.7,0.8-1.2,1.7-1.6,2.7c-0.3,0.9-0.6,1.9-0.8,3.1C0.1,21.8,0,24.8,0,28c0,3.3,0.1,6.3,0.4,8.4
			c0.2,1.2,0.4,2.2,0.8,3.1c0.4,1.1,0.9,1.9,1.6,2.7c1.2,1.5,2.9,2.5,5.3,3.1c1.8,0.5,4.1,0.9,7.1,1.2c2.3,0.3,4.9,0.5,7.8,0.6
			c3,0.2,10,0.2,13.7,0.2c3.7,0,10.5-0.1,13.5-0.2c1.1-0.1,2.2-0.1,3.2-0.2l12.3,7.1v-9c2-0.7,3.5-1.6,4.6-2.9
			c0.7-0.8,1.2-1.7,1.6-2.7c0.3-0.9,0.6-1.9,0.8-3.1c0.3-2.2,0.4-5.2,0.4-8.4c0-3.3-0.1-6.3-0.4-8.4c-0.2-1.2-0.4-2.2-0.8-3.1
			c-0.4-1.1-0.9-1.9-1.6-2.7c-1.2-1.5-2.9-2.5-5.3-3.1c-1.8-0.5-4.1-0.9-7.1-1.2c-2.3-0.3-4.9-0.5-7.7-0.6
			C47.1,8.6,40.3,8.5,36.6,8.5L36.6,8.5z"/>
		<g>
			<path class="st1" d="M30.8,31.7c-0.4,0.3-0.6,0.7-0.6,1.2c0,0.4,0.1,0.7,0.3,0.9c0.2,0.2,0.5,0.3,0.9,0.3c0.1,0,0.3,0,0.4-0.1
				l0,0c0.5-0.1,0.9-0.3,1.3-0.6l0,0c0,0,0,0,0,0c0,0,0,0,0,0l0,0v-2.9l0,0C32,31,31.2,31.4,30.8,31.7z"/>
			<path class="st1" d="M69.1,20.1c-0.1-1-0.3-1.7-0.6-2.4c-0.3-0.7-0.6-1.2-1-1.7c-0.4-0.4-0.8-0.8-1.3-1.1
				c-0.6-0.4-1.3-0.7-2.2-0.9c-1.6-0.5-3.7-0.8-6.6-1.1c-2.2-0.3-4.7-0.5-7.5-0.6c-3-0.2-9.7-0.2-13.4-0.2C32.8,12,26,12.1,23,12.2
				c-2.8,0.1-5.3,0.4-7.5,0.6c-2.9,0.4-5,0.7-6.6,1.1c-0.9,0.3-1.6,0.6-2.2,0.9c-0.5,0.3-0.9,0.7-1.3,1.1c-0.4,0.5-0.7,1-1,1.7
				c-0.2,0.7-0.4,1.5-0.6,2.4c-0.3,2.1-0.3,5.2-0.3,7.9c0,2.7,0,5.8,0.3,7.9c0.1,1,0.3,1.7,0.6,2.4C4.7,39,5,39.5,5.4,40
				c0.4,0.4,0.8,0.8,1.3,1.1C7.3,41.5,8,41.8,8.9,42c1.6,0.5,3.7,0.8,6.6,1.1c2.2,0.3,4.7,0.5,7.5,0.6C26,43.9,32.8,44,36.6,44
				c3.7,0,10.4-0.1,13.4-0.2c1.1-0.1,2.2-0.1,3.2-0.2l1.1-0.1l0.9,0.5l7,4v-2.8v-2.6l2.4-0.8c0.7-0.2,1.4-0.5,1.9-0.9
				c0.5-0.3,0.8-0.6,1.2-1c0.4-0.5,0.7-1,1-1.7c0.2-0.7,0.4-1.5,0.6-2.4c0.3-2.1,0.3-5.2,0.3-7.9C69.5,25.3,69.4,22.2,69.1,20.1z
				 M12.9,19.4c1,0,1.8,0.8,1.8,1.8s-0.8,1.8-1.8,1.8s-1.8-0.8-1.8-1.8S11.9,19.4,12.9,19.4z M14.6,34.8c0,1-0.8,1.8-1.8,1.8
				c-1,0-1.8-0.8-1.8-1.8v-8.4c0-1,0.8-1.8,1.8-1.8c1,0,1.8,0.8,1.8,1.8V34.8z M22.5,33.7c0.3,0,0.5-0.1,0.7-0.2l0,0
				c0.2-0.2,0.5-0.2,0.8-0.2c0.7,0,1.3,0.6,1.3,1.3c0,0.5-0.3,0.9-0.7,1.1l0,0c-0.9,0.6-2,0.8-3.1,0.8c-1,0-1.9-0.4-2.6-1.1
				c-0.7-0.7-1.1-1.6-1.1-2.6v-5.3h-0.2c-0.7,0-1.3-0.6-1.3-1.3c0-0.3,0.1-0.5,0.2-0.8l0,0l2.4-3.5l0,0c0.2-0.4,0.7-0.6,1.1-0.6
				c0.7,0,1.3,0.6,1.3,1.3v2.2H24c0.7,0,1.3,0.6,1.3,1.3c0,0.7-0.6,1.3-1.3,1.3h-2.6v5C21.4,33.2,21.9,33.7,22.5,33.7z M36.7,36.3
				H35c-0.4,0-0.7-0.1-1-0.3c-0.3-0.2-0.5-0.5-0.7-0.8c-0.9,0.8-2,1.3-3.2,1.3h0c-1.7,0-3.2-1.4-3.2-3.2c0-1.2,0.6-2.2,1.6-2.8l0,0
				l0,0l0,0h0c0.5-0.3,1.8-0.8,2.8-1.1c1-0.4,1.9-0.6,2-0.7v-1.1c0-0.7-0.6-1.3-1.3-1.3c-0.5,0-0.9,0.2-1.1,0.6c0,0,0,0,0,0
				c0,0,0,0,0,0c-0.1,0.2-0.1,0.3-0.2,0.5l0,0c-0.1,0.3-0.3,0.6-0.5,0.8c-0.3,0.2-0.7,0.4-1,0.4c-0.9,0-1.7-0.7-1.7-1.7v0v0v0v0
				c0-0.4,0.1-0.8,0.4-1.1c0.2-0.3,0.6-0.5,1.1-0.7c0.6-0.2,1.6-0.5,3.2-0.5c1.5,0,2.6,0.3,3.3,0.9c0.9,0.7,1.4,2,1.4,3.9v4.1
				c0,0.3,0.2,0.6,0.4,0.7h0c0.4,0.2,0.7,0.6,0.7,1C37.8,35.8,37.3,36.3,36.7,36.3z M42.9,34.8c0,1-0.8,1.8-1.8,1.8
				c-1,0-1.8-0.8-1.8-1.8V21.2c0-1,0.8-1.8,1.8-1.8c1,0,1.8,0.8,1.8,1.8V34.8z M54.8,36.6c-0.5,0-1-0.2-1.4-0.7v0l-4.3-5.3v4.2
				c0,1-0.8,1.8-1.8,1.8s-1.8-0.8-1.8-1.8V21.2c0-1,0.8-1.8,1.8-1.8s1.8,0.8,1.8,1.8v9.4l4.3-5.3l0,0c0.3-0.4,0.8-0.7,1.4-0.7
				c1,0,1.8,0.8,1.8,1.8c0,0.4-0.1,0.8-0.4,1.1v0l-2.5,3.1l2.5,3.1l0,0c0.3,0.3,0.4,0.7,0.4,1.1C56.5,35.8,55.7,36.6,54.8,36.6z
				 M60.3,19.4c1,0,1.8,0.8,1.8,1.8s-0.8,1.8-1.8,1.8c-1,0-1.8-0.8-1.8-1.8S59.4,19.4,60.3,19.4z M62.1,34.8c0,1-0.8,1.8-1.8,1.8
				c-1,0-1.8-0.8-1.8-1.8v-8.4c0-1,0.8-1.8,1.8-1.8c1,0,1.8,0.8,1.8,1.8V34.8z"/>
		</g>
	</g>
</g>
<rect x="0" class="st2" width="73" height="56"/>
</svg>
